<svg width="1054" height="900" viewBox="0 0 1054 900" fill="none" xmlns="http://www.w3.org/2000/svg">
<path d="M419.837 373.785C647.501 303.555 674.995 107.131 660.284 17.6986L747.028 -68.6105L1078.28 -122.369L1192.92 -38.0324L1174.15 195.742C1126.13 269.393 1026.74 438.295 1013.35 524.703C996.607 632.713 786.088 794.481 580.642 864.515C416.286 920.542 312.633 827.689 281.351 774.26C232.653 670.031 192.173 444.016 419.837 373.785Z" fill="#FF7200" fill-opacity="0.7"/>
<path d="M326.746 352.939C603.11 218.371 598.021 -42.2134 560.931 -155.684L654.043 -284.375L1066.06 -417.213L1229.73 -329.359L1253.6 -21.874C1207.35 83.001 1114.99 321.471 1115.57 436.35C1116.3 579.949 880.567 830.262 632.537 960.351C434.112 1064.42 282.739 963.409 231.856 899.893C148.334 773.645 50.3817 487.508 326.746 352.939Z" fill="#FF7200" fill-opacity="0.35"/>
</svg>
